<svg width="113" height="112" viewBox="0 0 113 112" fill="none" xmlns="http://www.w3.org/2000/svg">
<path d="M55.9309 13H51.5481V0.636363L55.9671 0.636363C57.2107 0.636363 58.2813 0.883878 59.1788 1.37891C60.0763 1.86991 60.7665 2.57623 61.2494 3.49787C61.7364 4.41951 61.9799 5.52225 61.9799 6.80611C61.9799 8.09399 61.7364 9.20076 61.2494 10.1264C60.7665 11.0521 60.0722 11.7624 59.1667 12.2575C58.2652 12.7525 57.1866 13 55.9309 13ZM54.1621 10.7603H55.8222C56.595 10.7603 57.2449 10.6235 57.7722 10.3498C58.3034 10.0721 58.7019 9.64347 58.9675 9.06392C59.2371 8.48035 59.372 7.72775 59.372 6.80611C59.372 5.89252 59.2371 5.14595 58.9675 4.56641C58.7019 3.98686 58.3054 3.56025 57.7782 3.28658C57.251 3.0129 56.601 2.87607 55.8283 2.87607L54.1621 2.87607V10.7603Z" fill="black"/>
<path d="M70.424 15.1788L75.4527 3.88406L83.0635 7.27257L82.1869 9.24143L76.9642 6.91612L75.7659 9.60745L80.597 11.7584L79.7205 13.7273L74.8893 11.5763L73.6886 14.2731L78.9334 16.6083L78.0568 18.5771L70.424 15.1788Z" fill="black"/>
<path d="M85.937 24.5039L95.1249 16.231L96.874 18.1736L89.2877 25.0044L92.8344 28.9434L91.2327 30.3855L85.937 24.5039Z" fill="black"/>
<path d="M109.681 40.5553L97.9226 44.3759L97.1149 41.8898L108.873 38.0693L109.681 40.5553Z" fill="black"/>
<path d="M106.676 67.4078L106.952 64.7782C107.297 64.7659 107.61 64.6996 107.89 64.5793C108.173 64.4593 108.422 64.2932 108.634 64.0808C108.847 63.8684 109.019 63.6154 109.151 63.3217C109.283 63.0321 109.367 62.7111 109.404 62.3589C109.471 61.7225 109.371 61.1515 109.104 60.646C108.842 60.1409 108.424 59.7267 107.851 59.4034C107.282 59.0805 106.571 58.8743 105.719 58.7847C104.842 58.6926 104.092 58.7452 103.468 58.9427C102.844 59.1442 102.355 59.4651 102.001 59.9055C101.647 60.3458 101.438 60.8762 101.373 61.4966C101.336 61.8448 101.348 62.1718 101.409 62.4777C101.47 62.7876 101.576 63.0678 101.727 63.3185C101.883 63.5696 102.081 63.7846 102.321 63.9636C102.561 64.1467 102.842 64.2854 103.164 64.38L102.875 67.0084C102.318 66.881 101.792 66.6537 101.296 66.3264C100.804 66.0036 100.376 65.5923 100.011 65.0927C99.6506 64.5975 99.3831 64.0231 99.209 63.3694C99.0385 62.7202 98.9947 62.0014 99.0776 61.2128C99.1928 60.1161 99.5441 59.1616 100.131 58.3492C100.718 57.5408 101.508 56.9359 102.501 56.5344C103.494 56.137 104.659 56.0085 105.996 56.149C107.336 56.2899 108.451 56.662 109.338 57.2652C110.226 57.8684 110.87 58.6281 111.272 59.5444C111.677 60.4611 111.823 61.4598 111.71 62.5405C111.635 63.253 111.465 63.9029 111.201 64.4903C110.937 65.0816 110.588 65.5933 110.154 66.0252C109.724 66.4575 109.217 66.7927 108.634 67.0309C108.05 67.273 107.397 67.3987 106.676 67.4078Z" fill="black"/>
<path d="M103.653 85.3598L92.9453 79.178L94.2523 76.9142L104.96 83.096L103.653 85.3598Z" fill="black"/>
<path d="M80.6871 99.5293C79.8947 98.4385 79.4272 97.3604 79.2848 96.2948C79.1391 95.2315 79.2745 94.2402 79.691 93.3208C80.1066 92.4069 80.7556 91.6295 81.6379 90.9884C82.5268 90.3426 83.4712 89.9649 84.4711 89.8553C85.471 89.7457 86.454 89.9244 87.4202 90.3915C88.3864 90.8586 89.2645 91.6359 90.0546 92.7234C90.8471 93.8142 91.3162 94.8912 91.4618 95.9544C91.6075 97.0176 91.4725 98.0061 91.057 98.92C90.6437 99.837 89.9927 100.618 89.1038 101.264C88.2214 101.905 87.2803 102.281 86.2804 102.39C85.2797 102.506 84.2962 102.33 83.33 101.863C82.3606 101.398 81.4796 100.62 80.6871 99.5293ZM82.8312 97.9715C83.3445 98.6781 83.8833 99.197 84.4474 99.5284C85.0082 99.8622 85.5702 100.016 86.1333 99.9899C86.6964 99.9639 87.2336 99.7651 87.7448 99.3937C88.256 99.0223 88.611 98.5729 88.8098 98.0454C89.0085 97.5179 89.0375 96.9347 88.8967 96.2958C88.7526 95.6593 88.4239 94.9877 87.9105 94.2812C87.3972 93.5746 86.8601 93.0545 86.2992 92.7207C85.7351 92.3894 85.1715 92.2367 84.6084 92.2628C84.0453 92.2888 83.5082 92.4876 82.997 92.859C82.4858 93.2304 82.1308 93.6798 81.932 94.2073C81.7332 94.7348 81.7059 95.3168 81.8499 95.9533C81.9908 96.5923 82.3179 97.265 82.8312 97.9715Z" fill="black"/>
<path d="M64.9976 107.506C65.1461 107.972 65.4274 108.299 65.8417 108.487C66.256 108.675 66.7703 108.703 67.3844 108.573C67.8017 108.484 68.1414 108.35 68.4037 108.171C68.6668 107.995 68.8534 107.789 68.9634 107.552C69.0695 107.315 69.0949 107.067 69.0397 106.807C69.0015 106.589 68.9161 106.41 68.7834 106.269C68.6467 106.13 68.4773 106.02 68.275 105.939C68.0736 105.863 67.8476 105.806 67.5969 105.769C67.347 105.735 67.084 105.717 66.8077 105.714L65.6659 105.685C65.1133 105.679 64.5956 105.625 64.1129 105.522C63.6301 105.419 63.1968 105.258 62.8129 105.039C62.429 104.82 62.1071 104.535 61.8471 104.183C61.5832 103.831 61.3957 103.404 61.2846 102.901C61.1313 102.16 61.1838 101.478 61.4423 100.856C61.6978 100.238 62.144 99.7045 62.7812 99.2564C63.4152 98.813 64.2243 98.4868 65.2085 98.2776C66.1848 98.0701 67.0669 98.0389 67.8548 98.1841C68.6388 98.3302 69.2959 98.6534 69.8261 99.1538C70.3531 99.6589 70.7189 100.344 70.9236 101.21L68.4494 101.736C68.3356 101.337 68.1475 101.023 67.8851 100.795C67.6195 100.571 67.2989 100.427 66.9232 100.363C66.5444 100.304 66.1345 100.321 65.6936 100.415C65.2606 100.507 64.898 100.65 64.6059 100.844C64.3099 101.038 64.0971 101.266 63.9677 101.528C63.8382 101.791 63.8045 102.067 63.8664 102.359C63.9241 102.63 64.0534 102.841 64.2541 102.992C64.4509 103.144 64.7166 103.252 65.0513 103.316C65.382 103.382 65.7791 103.421 66.2426 103.433L67.6298 103.484C68.7021 103.515 69.5895 103.732 70.2922 104.134C70.9948 104.536 71.4391 105.184 71.6251 106.079C71.7847 106.81 71.7258 107.491 71.4485 108.122C71.1672 108.754 70.7127 109.297 70.0851 109.751C69.4575 110.206 68.7028 110.526 67.821 110.714C66.9235 110.905 66.1074 110.918 65.3729 110.753C64.6345 110.589 64.0201 110.273 63.5298 109.805C63.0395 109.338 62.7119 108.745 62.547 108.027L64.9976 107.506Z" fill="black"/>
<path d="M51.1109 99.2256L48.5404 111.319L40.3915 109.587L40.8396 107.479L46.4316 108.667L47.0441 105.786L41.8713 104.686L42.3194 102.578L47.4922 103.678L48.106 100.79L42.4903 99.5965L42.9384 97.4885L51.1109 99.2256Z" fill="black"/>
<path d="M20.8981 81.1563L10.1909 87.3381L6.09785 80.2488L7.96429 79.1712L10.7503 83.9968L13.3017 82.5237L10.7873 78.1687L12.6537 77.0911L15.1681 81.4461L19.5911 78.8925L20.8981 81.1563Z" fill="black"/>
<path d="M6.64708 55.5922C7.98794 55.4513 9.15539 55.5856 10.1494 55.995C11.143 56.4005 11.9339 57.0134 12.5219 57.8338C13.1055 58.6506 13.4543 59.6014 13.5683 60.6861C13.6831 61.7788 13.5381 62.7855 13.133 63.7062C12.728 64.627 12.0817 65.3889 11.1941 65.9921C10.3065 66.5953 9.19426 66.9671 7.8574 67.1076C6.51654 67.2486 5.3493 67.1163 4.35569 66.7108C3.36208 66.3054 2.57347 65.6942 1.98986 64.8774C1.40225 64.061 1.05102 63.1065 0.936177 62.0138C0.82217 60.9291 0.967683 59.9264 1.37271 59.0057C1.77332 58.0814 2.41742 57.3176 3.30502 56.7144C4.1922 56.1072 5.30622 55.7332 6.64708 55.5922ZM6.9241 58.2279C6.05554 58.3192 5.33675 58.5263 4.76771 58.8491C4.19825 59.168 3.78403 59.5778 3.52505 60.0785C3.26607 60.5792 3.16961 61.1437 3.23566 61.7721C3.3017 62.4005 3.51344 62.9327 3.87086 63.3686C4.22827 63.8045 4.71885 64.1212 5.34258 64.3187C5.96588 64.5121 6.71182 64.5632 7.58038 64.472C8.44893 64.3807 9.16794 64.1756 9.7374 63.8567C10.3064 63.5339 10.7204 63.1221 10.9794 62.6214C11.2384 62.1207 11.3349 61.5562 11.2688 60.9278C11.2028 60.2994 10.991 59.7672 10.6336 59.3313C10.2762 58.8954 9.78584 58.5807 9.16253 58.3872C8.5388 58.1897 7.79266 58.1366 6.9241 58.2279Z" fill="black"/>
<path d="M11.1862 35.4275C12.4685 35.8441 13.4804 36.4416 14.2219 37.22C14.9647 37.9945 15.4378 38.8761 15.6414 39.8648C15.8423 40.8483 15.7742 41.8588 15.4372 42.8961C15.0977 43.941 14.5556 44.8017 13.8111 45.4781C13.0666 46.1544 12.1663 46.5876 11.1101 46.7777C10.0539 46.9677 8.88657 46.855 7.60813 46.4396C6.32587 46.023 5.31335 45.4274 4.57055 44.6528C3.82776 43.8783 3.3559 42.9992 3.15498 42.0157C2.95023 41.0308 3.01762 40.016 3.35714 38.971C3.69418 37.9337 4.23495 37.0769 4.97946 36.4005C5.72138 35.7191 6.62044 35.2833 7.67664 35.0933C8.73408 34.8995 9.90393 35.0108 11.1862 35.4275ZM10.3672 37.948C9.53663 37.6781 8.79575 37.5749 8.1446 37.6384C7.49468 37.6981 6.94961 37.9039 6.50937 38.256C6.06913 38.6081 5.75138 39.0846 5.55612 39.6855C5.36087 40.2865 5.33785 40.8587 5.48707 41.4023C5.63628 41.9459 5.95563 42.4348 6.44511 42.8689C6.93584 43.2991 7.5965 43.6492 8.42709 43.9191C9.25769 44.189 9.99795 44.2941 10.6479 44.2344C11.299 44.1709 11.8447 43.9632 12.285 43.6111C12.7252 43.259 13.0429 42.7825 13.2382 42.1816C13.4335 41.5806 13.4565 41.0084 13.3073 40.4648C13.158 39.9212 12.8381 39.4342 12.3473 39.004C11.8579 38.5698 11.1978 38.2179 10.3672 37.948Z" fill="black"/>
<path d="M23.9754 27.6012L21.0427 30.8583L11.8547 22.5854L14.8116 19.3014C15.6438 18.3773 16.5441 17.7473 17.5125 17.4116C18.4779 17.0732 19.4646 17.0328 20.4727 17.2906C21.4835 17.5454 22.4659 18.1024 23.42 18.9614C24.3771 19.8232 25.0366 20.7447 25.3987 21.726C25.7634 22.7043 25.8268 23.6955 25.5887 24.6997C25.3534 25.7009 24.8156 26.6681 23.9754 27.6012ZM21.1274 27.4171L22.2382 26.1833C22.7553 25.6091 23.0885 25.0345 23.2379 24.4596C23.387 23.879 23.3351 23.2961 23.0822 22.7109C22.8289 22.12 22.3598 21.5162 21.6749 20.8995C20.996 20.2882 20.351 19.8889 19.7399 19.7014C19.1314 19.5111 18.5491 19.5202 17.993 19.7289C17.4368 19.9376 16.9002 20.329 16.3832 20.9033L15.2683 22.1415L21.1274 27.4171Z" fill="black"/>
<path d="M37.2228 7.78775C36.9806 7.36251 36.6374 7.10121 36.1931 7.00384C35.7489 6.90646 35.24 6.98546 34.6664 7.24082C34.2767 7.41434 33.9722 7.616 33.7529 7.8458C33.532 8.07192 33.3924 8.3125 33.3341 8.56752C33.2795 8.82092 33.3062 9.06894 33.4143 9.3116C33.497 9.51709 33.6178 9.67475 33.7768 9.78457C33.9396 9.89275 34.1282 9.96516 34.3428 10.0018C34.5557 10.0348 34.7886 10.0434 35.0415 10.0277C35.2928 10.0083 35.5539 9.97138 35.8248 9.91685L36.9476 9.70771C37.4894 9.59866 38.0071 9.54438 38.5008 9.54487C38.9944 9.54537 39.4517 9.6127 39.8727 9.74686C40.2937 9.88103 40.6679 10.0933 40.9954 10.3836C41.3266 10.6723 41.5988 11.0511 41.812 11.5201C42.1161 12.213 42.2064 12.8908 42.0831 13.5537C41.9617 14.2113 41.636 14.8255 41.106 15.3963C40.578 15.9618 39.8544 16.4492 38.9352 16.8584C38.0234 17.2644 37.167 17.4782 36.3661 17.5C35.5689 17.5201 34.859 17.3406 34.2364 16.9614C33.6158 16.5769 33.1154 15.9824 32.7353 15.1781L35.0461 14.1492C35.2404 14.5165 35.4897 14.7844 35.7938 14.9529C36.1 15.1162 36.4435 15.1901 36.8243 15.1748C37.2072 15.1541 37.6045 15.0521 38.0163 14.8687C38.4208 14.6887 38.7457 14.4735 38.9911 14.2233C39.2402 13.9714 39.4009 13.7038 39.473 13.4206C39.5451 13.1373 39.5206 12.8597 39.3995 12.5876C39.2866 12.3339 39.1162 12.1542 38.8886 12.0486C38.6646 11.9412 38.3822 11.8907 38.0414 11.8971C37.7042 11.9018 37.3077 11.9462 36.8517 12.0303L35.4843 12.269C34.429 12.4613 33.5158 12.4339 32.745 12.1868C31.9741 11.9397 31.4047 11.398 31.0368 10.5618C30.7287 9.87953 30.6447 9.20104 30.7848 8.52629C30.9286 7.8499 31.2602 7.22426 31.7796 6.64937C32.299 6.07449 32.9705 5.6037 33.7941 5.23702C34.6324 4.8638 35.4279 4.68143 36.1806 4.68993C36.937 4.69679 37.6036 4.87799 38.1804 5.23354C38.7572 5.58909 39.201 6.10082 39.5115 6.76874L37.2228 7.78775Z" fill="black"/>
</svg>
