<svg width="45" height="45" viewBox="0 0 45 45" fill="none" xmlns="http://www.w3.org/2000/svg">
<path d="M15 5.625C9.83063 5.625 5.625 9.83063 5.625 15V30C5.625 35.1694 9.83063 39.375 15 39.375H30C35.1694 39.375 39.375 35.1694 39.375 30V15C39.375 9.83063 35.1694 5.625 30 5.625H15ZM15 9.375H30C33.1013 9.375 35.625 11.8987 35.625 15V30C35.625 33.1013 33.1013 35.625 30 35.625H15C11.8987 35.625 9.375 33.1013 9.375 30V15C9.375 11.8987 11.8987 9.375 15 9.375ZM31.875 11.25C31.3777 11.25 30.9008 11.4475 30.5492 11.7992C30.1975 12.1508 30 12.6277 30 13.125C30 13.6223 30.1975 14.0992 30.5492 14.4508C30.9008 14.8025 31.3777 15 31.875 15C32.3723 15 32.8492 14.8025 33.2008 14.4508C33.5525 14.0992 33.75 13.6223 33.75 13.125C33.75 12.6277 33.5525 12.1508 33.2008 11.7992C32.8492 11.4475 32.3723 11.25 31.875 11.25ZM22.5 13.125C17.3306 13.125 13.125 17.3306 13.125 22.5C13.125 27.6694 17.3306 31.875 22.5 31.875C27.6694 31.875 31.875 27.6694 31.875 22.5C31.875 17.3306 27.6694 13.125 22.5 13.125ZM22.5 16.875C25.6013 16.875 28.125 19.3987 28.125 22.5C28.125 25.6013 25.6013 28.125 22.5 28.125C19.3987 28.125 16.875 25.6013 16.875 22.5C16.875 19.3987 19.3987 16.875 22.5 16.875Z" fill="black"/>
</svg>
